<?xml version="1.0" encoding="UTF-8"?>
<svg id="Ebene_1" data-name="Ebene 1" xmlns="http://www.w3.org/2000/svg" viewBox="0 0 913.42 904.63">
  <defs>
    <style>
      .cls-1 {
        fill: #fff;
        stroke-width: 0px;
      }
    </style>
  </defs>
  <path class="cls-1" d="m257.98,337.9h.09s.24-.23.24-.23l-65.49-113.27h0l-63.02-110.46L327.7.06l1.66,1.44h0l127.3,222.62.49.12L585.33.57l2.04-.57,196.42,113.45h0l.43.57-128.97,223.39.07.36.32.2,257.78.22-.14,227.55-257.82.38-.36.22-.07.42,1.98,5.11h0l127.34,218.36-198.15,114.4-128.19-221.98-1.48-.52-1.37.77h0l-126.99,221.59-198.5-114.15,128.41-223.47-.11-.54-257.71-.59-.26-.62h0l.2-226.81,257.78-.41h0Zm102.09,58.56l-300.03.26-.05,110.17,300.17.15.39.33-149.72,260.99,96.42,52.98.76-.48h0l148.03-255.82-7.93-239.94-141.4-243.27-96.09,54.33v.48s149.9,259.24,149.9,259.24l-.08.4-.37.18h0Z"/>
</svg>
